<?xml version="1.0" standalone="no"?>
<!DOCTYPE svg PUBLIC "-//W3C//DTD SVG 20010904//EN"
 "http://www.w3.org/TR/2001/REC-SVG-20010904/DTD/svg10.dtd">
<svg version="1.0" xmlns="http://www.w3.org/2000/svg"
 width="500.000000pt" height="132.000000pt" viewBox="0 0 500.000000 132.000000"
 preserveAspectRatio="xMidYMid meet">

<g transform="translate(0.000000,132.000000) scale(0.100000,-0.100000)"
fill="#000000" stroke="none">
<path d="M423 1195 c-168 -45 -297 -179 -332 -343 -60 -283 155 -542 450 -542
125 0 238 49 326 142 109 116 148 268 107 423 -60 235 -317 383 -551 320z
m377 -300 l0 -35 -250 0 -250 0 0 35 0 35 250 0 250 0 0 -35z m0 -150 l0 -35
-250 0 -250 0 0 35 0 35 250 0 250 0 0 -35z m-132 -157 l3 -38 -185 0 -186 0
0 40 0 40 183 -2 182 -3 3 -37z"/>
<path d="M1430 1159 c0 -6 54 -193 120 -415 66 -222 120 -406 120 -409 0 -3
30 -5 67 -3 l68 3 47 140 c27 77 69 200 95 274 l47 135 18 -55 c10 -30 52
-154 94 -277 l77 -223 65 3 65 3 122 395 c67 217 125 405 129 418 7 22 6 22
-73 22 l-80 0 -35 -112 c-19 -62 -56 -184 -82 -271 -27 -86 -51 -154 -54 -150
-4 5 -47 126 -95 271 l-89 262 -62 0 -61 0 -93 -271 c-53 -153 -96 -265 -100
-258 -4 8 -40 130 -81 271 l-74 258 -77 0 c-51 0 -78 -4 -78 -11z"/>
<path d="M4080 1025 c0 -74 -4 -135 -9 -135 -5 0 -30 10 -57 21 -137 61 -314
-5 -386 -144 -30 -58 -36 -177 -14 -245 22 -64 84 -135 150 -170 44 -23 63
-27 136 -27 69 0 93 4 127 23 51 27 53 27 53 2 0 -18 7 -20 65 -20 l65 0 0
415 0 415 -65 0 -65 0 0 -135z m-84 -250 c95 -56 112 -199 33 -272 -69 -63
-163 -66 -229 -7 -49 45 -64 81 -58 148 11 129 142 197 254 131z"/>
<path d="M2769 930 c-91 -15 -177 -78 -221 -163 -30 -59 -36 -177 -13 -248 25
-73 100 -148 180 -178 112 -43 246 -16 331 67 91 88 117 239 61 354 -60 122
-198 190 -338 168z m124 -144 c96 -40 132 -170 73 -259 -67 -102 -224 -95
-284 11 -37 66 -25 170 24 214 54 47 125 61 187 34z"/>
<path d="M3210 630 l0 -300 69 0 68 0 5 133 c4 109 9 141 28 184 28 65 86 119
145 135 l45 12 0 67 0 66 -49 -8 c-58 -9 -105 -31 -143 -67 l-28 -26 0 52 0
52 -70 0 -70 0 0 -300z"/>
<path d="M4270 920 c0 -6 54 -126 121 -267 l121 -255 -66 -148 c-36 -81 -66
-150 -66 -154 0 -3 33 -6 73 -6 l74 0 183 413 c101 226 185 416 188 420 2 4
-31 7 -74 5 l-78 -3 -75 -172 c-42 -94 -79 -174 -82 -177 -3 -3 -43 75 -89
174 l-84 180 -73 0 c-44 0 -73 -4 -73 -10z"/>
</g>
</svg>
